<svg width="12" height="13" viewBox="0 0 12 13" fill="none" xmlns="http://www.w3.org/2000/svg">
<g clip-path="url(#clip0_430_24619)">
<path fill-rule="evenodd" clip-rule="evenodd" d="M6.35416 8.35318C6.2604 8.44692 6.13324 8.49958 6.00066 8.49958C5.86808 8.49958 5.74092 8.44692 5.64716 8.35318L2.81866 5.52468C2.7709 5.47856 2.73281 5.42339 2.70661 5.36239C2.6804 5.30138 2.66661 5.23577 2.66603 5.16938C2.66546 5.10299 2.67811 5.03715 2.70325 4.97571C2.72839 4.91426 2.76552 4.85843 2.81246 4.81149C2.85941 4.76454 2.91523 4.72741 2.97668 4.70227C3.03813 4.67713 3.10397 4.66448 3.17036 4.66506C3.23675 4.66563 3.30236 4.67943 3.36336 4.70563C3.42436 4.73184 3.47954 4.76993 3.52566 4.81768L6.00066 7.29268L8.47566 4.81768C8.56996 4.7266 8.69626 4.67621 8.82736 4.67735C8.95846 4.67849 9.08387 4.73107 9.17657 4.82377C9.26927 4.91648 9.32186 5.04188 9.323 5.17298C9.32414 5.30408 9.27374 5.43038 9.18266 5.52468L6.35416 8.35318Z" fill="#323E48"/>
</g>
<defs>
<clipPath id="clip0_430_24619">
<rect width="12" height="12" fill="white" transform="translate(0 0.5)"/>
</clipPath>
</defs>
</svg>
