<svg width="12" height="13" viewBox="0 0 12 13" fill="none" xmlns="http://www.w3.org/2000/svg">
<g clip-path="url(#clip0_430_24675)">
<path fill-rule="evenodd" clip-rule="evenodd" d="M5.64584 4.64682C5.7396 4.55308 5.86676 4.50042 5.99934 4.50042C6.13192 4.50042 6.25908 4.55308 6.35284 4.64682L9.18134 7.47532C9.2291 7.52144 9.26719 7.57661 9.29339 7.63761C9.3196 7.69862 9.33339 7.76423 9.33397 7.83062C9.33454 7.89701 9.32189 7.96285 9.29675 8.02429C9.27161 8.08574 9.23448 8.14157 9.18754 8.18851C9.14059 8.23546 9.08477 8.27259 9.02332 8.29773C8.96187 8.32287 8.89603 8.33552 8.82964 8.33494C8.76325 8.33437 8.69764 8.32057 8.63664 8.29437C8.57564 8.26816 8.52046 8.23007 8.47434 8.18232L5.99934 5.70732L3.52434 8.18232C3.43004 8.2734 3.30374 8.32379 3.17264 8.32265C3.04154 8.32151 2.91613 8.26893 2.82343 8.17623C2.73073 8.08352 2.67814 7.95812 2.677 7.82702C2.67586 7.69592 2.72626 7.56962 2.81734 7.47532L5.64584 4.64682Z" fill="#323E48"/>
</g>
<defs>
<clipPath id="clip0_430_24675">
<rect width="12" height="12" fill="white" transform="matrix(-1 0 0 -1 12 12.5)"/>
</clipPath>
</defs>
</svg>
