<svg width="69" height="48" viewBox="0 0 69 48" fill="none" xmlns="http://www.w3.org/2000/svg">
<path d="M12 15.0864H58M12 15.0864V37.8025C12 39.0074 12.4787 40.163 13.3307 41.015C14.1827 41.867 15.3383 42.3457 16.5432 42.3457H53.4568C54.6617 42.3457 55.8173 41.867 56.6693 41.015C57.5213 40.163 58 39.0074 58 37.8025V15.0864M12 15.0864L21.0864 6H48.9136L58 15.0864" stroke="#323E48" stroke-width="3.40741" stroke-linecap="round" stroke-linejoin="round"/>
<path d="M34.8047 31.9346C31.563 31.9346 28.4752 33.3076 26.3308 35.7024C26.0108 36.0607 26.0413 36.6094 26.3986 36.9302C26.5639 37.0789 26.7717 37.152 26.9786 37.152C27.2169 37.152 27.4552 37.0546 27.6265 36.8624C29.4413 34.8354 32.0578 33.6737 34.8047 33.6737C37.5526 33.6737 40.1691 34.8354 41.983 36.8624C42.303 37.2207 42.8534 37.2502 43.2108 36.9302C43.5682 36.6102 43.5986 36.0607 43.2786 35.7024C41.1352 33.3085 38.0473 31.9346 34.8047 31.9346Z" fill="#323E48"/>
<path d="M45.2382 21.5C44.7573 21.5 44.3686 21.8896 44.3686 22.3696C44.3686 23.8078 43.1982 24.9783 41.7599 24.9783C40.3217 24.9783 39.1512 23.8078 39.1512 22.3696C39.1512 21.8896 38.7625 21.5 38.2817 21.5C37.8008 21.5 37.4121 21.8896 37.4121 22.3696C37.4121 24.767 39.3625 26.7174 41.7599 26.7174C44.1573 26.7174 46.1078 24.767 46.1078 22.3696C46.1078 21.8896 45.7191 21.5 45.2382 21.5Z" fill="#323E48"/>
<path d="M32.1957 22.3696C32.1957 21.8896 31.807 21.5 31.3261 21.5C30.8452 21.5 30.4565 21.8896 30.4565 22.3696C30.4565 23.8078 29.2861 24.9783 27.8478 24.9783C26.4096 24.9783 25.2391 23.8078 25.2391 22.3696C25.2391 21.8896 24.8504 21.5 24.3696 21.5C23.8887 21.5 23.5 21.8896 23.5 22.3696C23.5 24.767 25.4504 26.7174 27.8478 26.7174C30.2452 26.7174 32.1957 24.767 32.1957 22.3696Z" fill="#323E48"/>
</svg>
