<svg width="20" height="20" viewBox="0 0 20 20" fill="none" xmlns="http://www.w3.org/2000/svg">
<path fill-rule="evenodd" clip-rule="evenodd" d="M13.0883 9.40973C13.2445 9.56601 13.3323 9.77793 13.3323 9.9989C13.3323 10.2199 13.2445 10.4318 13.0883 10.5881L8.37415 15.3022C8.29727 15.3818 8.20532 15.4453 8.10365 15.489C8.00198 15.5327 7.89263 15.5556 7.78198 15.5566C7.67133 15.5576 7.5616 15.5365 7.45919 15.4946C7.35677 15.4527 7.26373 15.3908 7.18548 15.3126C7.10724 15.2343 7.04536 15.1413 7.00346 15.0389C6.96156 14.9364 6.94048 14.8267 6.94144 14.7161C6.9424 14.6054 6.96539 14.4961 7.00906 14.3944C7.05274 14.2927 7.11622 14.2008 7.19581 14.1239L11.3208 9.9989L7.19581 5.8739C7.04401 5.71673 6.96002 5.50623 6.96192 5.28773C6.96382 5.06923 7.05146 4.86022 7.20596 4.70572C7.36047 4.55121 7.56948 4.46357 7.78798 4.46167C8.00648 4.45977 8.21698 4.54377 8.37415 4.69557L13.0883 9.40973Z" fill="#323E48"/>
</svg>
