<svg width="26" height="24" viewBox="0 0 26 24" fill="none" xmlns="http://www.w3.org/2000/svg">
<g clip-path="url(#clip0_4682_26302)">
<path fill-rule="evenodd" clip-rule="evenodd" d="M11.4993 2C10.1439 2.00012 8.80814 2.32436 7.60353 2.94569C6.39893 3.56702 5.36037 4.46742 4.57451 5.57175C3.78866 6.67609 3.27829 7.95235 3.08599 9.29404C2.89368 10.6357 3.02503 12.004 3.46906 13.2846C3.91308 14.5652 4.65692 15.7211 5.63851 16.6557C6.6201 17.5904 7.81098 18.2768 9.11179 18.6576C10.4126 19.0384 11.7856 19.1026 13.1163 18.8449C14.447 18.5872 15.6967 18.015 16.7613 17.176L20.4133 20.828C20.6019 21.0102 20.8545 21.111 21.1167 21.1087C21.3789 21.1064 21.6297 21.0012 21.8151 20.8158C22.0005 20.6304 22.1057 20.3796 22.108 20.1174C22.1102 19.8552 22.0094 19.6026 21.8273 19.414L18.1753 15.762C19.1633 14.5086 19.7784 13.0024 19.9504 11.4157C20.1223 9.82905 19.8441 8.22602 19.1475 6.79009C18.4509 5.35417 17.3642 4.14336 16.0116 3.29623C14.659 2.44911 13.0952 1.99989 11.4993 2ZM4.99928 10.5C4.99928 8.77609 5.6841 7.12279 6.90308 5.90381C8.12207 4.68482 9.77537 4 11.4993 4C13.2232 4 14.8765 4.68482 16.0955 5.90381C17.3145 7.12279 17.9993 8.77609 17.9993 10.5C17.9993 12.2239 17.3145 13.8772 16.0955 15.0962C14.8765 16.3152 13.2232 17 11.4993 17C9.77537 17 8.12207 16.3152 6.90308 15.0962C5.6841 13.8772 4.99928 12.2239 4.99928 10.5Z" fill="black"/>
</g>
<defs>
<clipPath id="clip0_4682_26302">
<rect width="24" height="24" fill="white" transform="translate(1)"/>
</clipPath>
</defs>
</svg>
